# xmcd
#
# Track frame offsets: 
#        150
#        22887
#        48995
#        71069
#        95066
#        117489
#        149434
#        170958
#        191646
#        222156
#
# Disc length: 3208 seconds
#
# Revision: 1
# Processed by: cddbd v1.5.2PL0 Copyright (c) Steve Scherf et al.
# Submitted via: ExactAudioCopy v1.0b3
#
DISCID=9b0c860a
DTITLE=Luu Hong - Yeu Mot Minh
DYEAR=1998
DGENRE=
TTITLE0=Yeu mot minh
TTITLE1=Ngay vui qua mau
TTITLE2=Thanh pho sau lung
TTITLE3=Biet kinh ky
TTITLE4=Tinh lo
TTITLE5=Bien man
TTITLE6=Ve dau mai toc nguoi thuong
TTITLE7=Mua nua dem
TTITLE8=Tam su voi anh
TTITLE9=Mua rung
EXTD=
EXTT0=
EXTT1=
EXTT2=
EXTT3=
EXTT4=
EXTT5=
EXTT6=
EXTT7=
EXTT8=
EXTT9=
PLAYORDER=
